<?xml version="1.0" encoding="UTF-8" standalone="no"?>
<svg width="400px" height="500px" viewBox="0 0 400 500" version="1.1" xmlns="http://www.w3.org/2000/svg" xmlns:xlink="http://www.w3.org/1999/xlink">
    <defs>
        <linearGradient x1="47.619%" y1="0%" x2="47.619%" y2="100%" id="linearGradient-1">
            <stop stop-color="#212834" stop-opacity="0.6" offset="0%"></stop>
            <stop stop-color="#0A121D" offset="100%"></stop>
        </linearGradient>
        <linearGradient x1="94.2343%" y1="51.5193%" x2="-2.6294%" y2="51.5193%" id="linearGradient-2">
            <stop stop-color="#212834" stop-opacity="0.6" offset="0%"></stop>
            <stop stop-color="#0A121D" offset="100%"></stop>
        </linearGradient>
        <linearGradient x1="55.2217%" y1="0%" x2="55.2217%" y2="100%" id="linearGradient-3">
            <stop stop-color="#0A121D" offset="0%"></stop>
            <stop stop-color="#212834" stop-opacity="0.6" offset="100%"></stop>
        </linearGradient>
        <linearGradient x1="8.3443%" y1="51.5193%" x2="105.2082%" y2="51.5193%" id="linearGradient-4">
            <stop stop-color="#0A121D" offset="0%"></stop>
            <stop stop-color="#212834" stop-opacity="0.6" offset="100%"></stop>
        </linearGradient>
        <linearGradient x1="47.619%" y1="0%" x2="47.619%" y2="100%" id="linearGradient-5">
            <stop stop-color="#FFFFFF" stop-opacity="0.6" offset="0%"></stop>
            <stop stop-color="#FFFFFF" offset="100%"></stop>
        </linearGradient>
        <linearGradient x1="94.2343%" y1="51.5193%" x2="-2.6294%" y2="51.5193%" id="linearGradient-6">
            <stop stop-color="#FFFFFF" stop-opacity="0.6" offset="0%"></stop>
            <stop stop-color="#FFFFFF" offset="100%"></stop>
        </linearGradient>
        <linearGradient x1="55.2217%" y1="0%" x2="55.2217%" y2="100%" id="linearGradient-7">
            <stop stop-color="#FFFFFF" offset="0%"></stop>
            <stop stop-color="#FFFFFF" stop-opacity="0.6" offset="100%"></stop>
        </linearGradient>
        <linearGradient x1="8.3443%" y1="51.5193%" x2="105.2082%" y2="51.5193%" id="linearGradient-8">
            <stop stop-color="#FFFFFF" offset="0%"></stop>
            <stop stop-color="#FFFFFF" stop-opacity="0.6" offset="100%"></stop>
        </linearGradient>
    </defs>
    <g id="Page-1" stroke="none" stroke-width="1" fill="none" fill-rule="evenodd">
        <g id="ui-sprite">
            <path d="M6.81367397,69.2237549 L0.0166297117,76.0166667 L1.43084327,77.4308802 L8.93086175,69.9308618 L9.63796853,69.223755 L8.93086175,68.5166482 L1.41421356,61 L0,62.4142136 L6.81367397,69.2237549 Z" id="green-arrow" fill="#539F00"></path>
            <path d="M92.897655,11.7659236 C92.8148897,11.8741135 92.7066721,11.9504863 92.5730001,11.9950436 C92.4169994,12.0470439 92.2783341,12.0990433 92.1570001,12.1510436 L90.8570001,12.7230436 C90.0596628,13.0350452 89.271004,13.2950426 88.4910001,13.5030436 C88.1443317,13.5723773 87.7933353,13.5940437 87.4380001,13.5680436 C87.082665,13.5420435 86.753335,13.4640443 86.4500001,13.3340436 C86.1466653,13.204043 85.873668,13.0177115 85.6310001,12.7750436 C85.3883323,12.5323757 85.2150007,12.2203788 85.1110001,11.8390436 C85.0763333,11.7003762 85.0460003,11.561711 85.0200001,11.4230436 C84.994,11.2843762 84.9983333,11.1543775 85.0330001,11.0330436 C84.8423325,11.1197107 84.6560011,11.2193764 84.4740001,11.3320436 C84.2919992,11.4447108 84.1316675,11.5443765 83.9930001,11.6310436 C83.906333,11.6657104 83.7936675,11.7307098 83.6550001,11.8260436 C83.5596505,11.8915965 83.4643018,11.9141231 83.3689528,11.8936235 C83.2284915,11.9698587 83.0811752,12.0426648 82.9270001,12.1120436 C82.7536659,12.190044 82.5716678,12.2723765 82.3810001,12.3590436 C82.1383323,12.497711 81.9043346,12.6190431 81.6790001,12.7230436 C81.4536657,12.8270441 81.219668,12.9397097 80.9770001,13.0610436 C80.8383328,13.1303773 80.617335,13.230043 80.3140001,13.3600436 C80.0106653,13.4900443 79.707335,13.5853766 79.4040001,13.6460436 C79.1006653,13.7067106 78.8363346,13.698044 78.6110001,13.6200436 C78.3856657,13.5420432 78.2730001,13.329712 78.2730001,12.9830436 C78.2730001,12.8097094 78.316333,12.653711 78.4030001,12.5150436 C78.4896672,12.3763762 78.5893329,12.2420443 78.7020001,12.1120436 C78.8146674,11.982043 78.9359995,11.8563775 79.0660001,11.7350436 C79.1960008,11.6137097 79.3129996,11.5010441 79.4170001,11.3970436 C79.5210007,11.3103765 79.6943323,11.1283783 79.9370001,10.8510436 C80.179668,10.5737089 80.3356665,10.3137115 80.4050001,10.0710436 C79.9369978,10.1230439 79.4646692,10.244376 78.9880001,10.4350436 C78.5113311,10.6257112 78.0736688,10.8250426 77.6750001,11.0330436 C77.172331,11.2757115 76.6523362,11.5487088 76.1150001,11.8520436 C75.5776641,12.1553785 75.1096688,12.5150415 74.7110001,12.9310436 C74.624333,13.0003773 74.533334,13.0393769 74.4380001,13.0480436 C74.3426663,13.0567103 74.2516672,13.0393772 74.1650001,12.9960436 C74.078333,12.9527101 74.0133337,12.8877107 73.9700001,12.8010436 C73.9266666,12.7143765 73.9223333,12.601711 73.9570001,12.4630436 C74.0090004,12.3070428 74.1389991,12.1683775 74.3470001,12.0470436 C74.4336672,11.9083762 74.520333,11.7480445 74.6070001,11.5660436 C74.6936672,11.3840427 74.7543333,11.2757104 74.7890001,11.2410436 C74.823667,11.1197097 74.8583333,10.9940443 74.8930001,10.8640436 C74.927667,10.734043 74.9536667,10.599711 74.9710001,10.4610436 C74.7803325,10.5130439 74.5896678,10.5737099 74.3990001,10.6430436 C74.2083325,10.7123773 74.0610007,10.7643768 73.9570001,10.7990436 C73.7143323,10.9030441 73.471668,11.0027098 73.2290001,11.0980436 C72.9863323,11.1933774 72.743668,11.3017097 72.5010001,11.4230436 C72.3623328,11.4923773 72.2366674,11.5617099 72.1240001,11.6310436 C72.0113329,11.7003773 71.8856675,11.7610433 71.7470001,11.8130436 C71.6859894,11.843549 71.6264705,11.8606325 71.5684429,11.8642944 L71.5684429,11.8642944 C71.4373178,11.9627738 71.2845043,12.0540231 71.1100001,12.1380436 C70.875999,12.2507108 70.637668,12.3547098 70.3950001,12.4500436 C70.1523323,12.5453774 69.9963338,12.6103768 69.9270001,12.6450436 C69.5456649,12.8357112 69.1600021,13.0220427 68.7700001,13.2040436 C68.3799982,13.3860445 67.9770022,13.5117099 67.5610001,13.5810436 C67.1969983,13.6330439 66.9456675,13.5550446 66.8070001,13.3470436 C66.6683328,13.1390426 66.5990001,12.8747119 66.5990001,12.5540436 C66.5990001,12.2333753 66.6466663,11.8867121 66.7420001,11.5140436 C66.837334,11.1413751 66.9369996,10.7990452 67.0410001,10.4870436 C66.6423315,10.6430444 66.2523354,10.786043 65.8710001,10.9160436 C65.4896649,11.0460443 65.117002,11.1977094 64.7530001,11.3710436 C64.4409986,11.509711 64.1290017,11.6657094 63.8170001,11.8390436 C63.7932923,11.8455094 63.7701874,11.8504342 63.7476856,11.8538182 C63.695985,11.896376 63.6280899,11.9304511 63.5440001,11.9560436 C63.3446658,12.0167106 63.1843341,12.0730433 63.0630001,12.1250436 L61.2170001,12.8010436 C61.0089991,12.8877107 60.7186687,13.0090428 60.3460001,13.1650436 C59.9733316,13.3210444 59.6006687,13.4467098 59.2280001,13.5420436 C58.8553316,13.6373774 58.517335,13.6503773 58.2140001,13.5810436 C57.9106653,13.5117099 57.7243338,13.2777123 57.6550001,12.8790436 C57.6203333,12.4803749 57.6939992,12.0860456 57.8760001,11.6960436 C58.0580011,11.3060417 58.2703323,10.8857125 58.5130001,10.4350436 C57.7156628,10.9723796 56.8836711,11.4490415 56.0170001,11.8650436 C55.988065,11.8795112 55.9604717,11.8906244 55.9342202,11.8983833 L55.9342202,11.8983833 C55.8944233,11.920891 55.84835,11.940111 55.7960001,11.9560436 C55.5966658,12.0167106 55.4363341,12.0730433 55.3150001,12.1250436 L53.4690001,12.8010436 C53.2609991,12.8877107 52.9706687,13.0090428 52.5980001,13.1650436 C52.2253316,13.3210444 51.8526687,13.4467098 51.4800001,13.5420436 C51.1073316,13.6373774 50.769335,13.6503773 50.4660001,13.5810436 C50.1626653,13.5117099 49.9763338,13.2777123 49.9070001,12.8790436 C49.8723333,12.4803749 49.9459992,12.0860456 50.1280001,11.6960436 C50.3100011,11.3060417 50.5223323,10.8857125 50.7650001,10.4350436 C49.9676628,10.9723796 49.1356711,11.4490415 48.2690001,11.8650436 C48.2208466,11.8891204 48.1764092,11.9039073 48.1356879,11.9094043 C48.0040655,11.979921 47.8665038,12.0474669 47.7230001,12.1120436 C47.5496659,12.190044 47.3676678,12.2723765 47.1770001,12.3590436 C46.9343323,12.497711 46.7003346,12.6190431 46.4750001,12.7230436 C46.2496657,12.8270441 46.015668,12.9397097 45.7730001,13.0610436 C45.6343328,13.1303773 45.413335,13.230043 45.1100001,13.3600436 C44.8066653,13.4900443 44.503335,13.5853766 44.2000001,13.6460436 C43.8966653,13.7067106 43.6323346,13.698044 43.4070001,13.6200436 C43.1816657,13.5420432 43.0690001,13.329712 43.0690001,12.9830436 C43.0690001,12.8097094 43.112333,12.653711 43.1990001,12.5150436 C43.2856672,12.3763762 43.3853329,12.2420443 43.4980001,12.1120436 C43.6106674,11.982043 43.7319995,11.8563775 43.8620001,11.7350436 C43.9920008,11.6137097 44.1089996,11.5010441 44.2130001,11.3970436 C44.3170007,11.3103765 44.4903323,11.1283783 44.7330001,10.8510436 C44.975668,10.5737089 45.1316665,10.3137115 45.2010001,10.0710436 C44.7329978,10.1230439 44.2606692,10.244376 43.7840001,10.4350436 C43.3073311,10.6257112 42.8696688,10.8250426 42.4710001,11.0330436 C41.968331,11.2757115 41.4483362,11.5487088 40.9110001,11.8520436 C40.3736641,12.1553785 39.9056688,12.5150415 39.5070001,12.9310436 C39.420333,13.0003773 39.329334,13.0393769 39.2340001,13.0480436 C39.1386663,13.0567103 39.0476672,13.0393772 38.9610001,12.9960436 C38.874333,12.9527101 38.8093337,12.8877107 38.7660001,12.8010436 C38.7226666,12.7143765 38.7183333,12.601711 38.7530001,12.4630436 C38.8050004,12.3070428 38.9349991,12.1683775 39.1430001,12.0470436 C39.2296672,11.9083762 39.316333,11.7480445 39.4030001,11.5660436 C39.4896672,11.3840427 39.5503333,11.2757104 39.5850001,11.2410436 C39.619667,11.1197097 39.6543333,10.9940443 39.6890001,10.8640436 C39.723667,10.734043 39.7496667,10.599711 39.7670001,10.4610436 C39.5763325,10.5130439 39.3856678,10.5737099 39.1950001,10.6430436 C39.0043325,10.7123773 38.8570007,10.7643768 38.7530001,10.7990436 C38.5103323,10.9030441 38.267668,11.0027098 38.0250001,11.0980436 C37.7823323,11.1933774 37.539668,11.3017097 37.2970001,11.4230436 C37.1583328,11.4923773 37.0326674,11.5617099 36.9200001,11.6310436 C36.8073329,11.7003773 36.6816675,11.7610433 36.5430001,11.8130436 C36.5376645,11.8157114 36.5323402,11.8182766 36.5270273,11.8207392 L36.5270273,11.8207392 C36.4072175,11.9265073 36.2695424,12.0322749 36.1140001,12.1380436 C35.8973324,12.2853777 35.6763346,12.4197097 35.4510001,12.5410436 C35.2256657,12.6623775 35.0783338,12.7490433 35.0090001,12.8010436 C34.6103315,13.0957117 34.2246687,13.4033753 33.8520001,13.7240436 C33.4793316,14.0447119 33.1196685,14.3870418 32.7730001,14.7510436 C32.0969968,15.427047 31.4600031,16.159373 30.8620001,16.9480436 C30.2639972,17.7367142 29.7050027,18.5470394 29.1850001,19.3790436 C28.9943325,19.725712 28.8036678,20.0723752 28.6130001,20.4190436 C28.4223325,20.765712 28.2403343,21.1123752 28.0670001,21.4590436 C27.9976665,21.5630441 27.9370004,21.6757097 27.8850001,21.7970436 C27.8329999,21.9183775 27.7636672,22.0223765 27.6770001,22.1090436 C27.5383328,22.1957107 27.3910009,22.2130439 27.2350001,22.1610436 C27.0789994,22.1090433 26.983667,22.0050444 26.9490001,21.8490436 C26.8969999,21.7103762 26.9099998,21.5847108 26.9880001,21.4720436 C27.0660005,21.3593764 27.1396665,21.2510441 27.2090001,21.1470436 C27.451668,20.7137081 27.689999,20.2890457 27.9240001,19.8730436 C28.1580013,19.4570415 28.3963323,19.0237125 28.6390001,18.5730436 C29.1243359,17.6890392 29.5966645,16.8137146 30.0560001,15.9470436 C30.5153358,15.0803726 30.9703312,14.1877149 31.4210001,13.2690436 C31.5250007,13.0263757 31.6376662,12.7880448 31.7590001,12.5540436 C31.8803341,12.3200424 31.9929996,12.0817115 32.0970001,11.8390436 L31.0050001,12.6710436 C30.8489994,12.809711 30.6756678,12.9613761 30.4850001,13.1260436 C30.2943325,13.2907111 30.0950012,13.438043 29.8870001,13.5680436 C29.6789991,13.6980443 29.4666679,13.7890433 29.2500001,13.8410436 C29.0333324,13.8930439 28.8210012,13.8670441 28.6130001,13.7630436 C28.318332,13.6590431 28.1493337,13.4770449 28.1060001,13.2170436 C28.0626666,12.9570423 28.0886663,12.6580453 28.1840001,12.3200436 C28.279334,11.9820419 28.4266658,11.6310454 28.6260001,11.2670436 C28.8253345,10.9030418 29.0289991,10.5563786 29.2370001,10.2270436 L27.9370001,10.7730436 C27.642332,10.911711 27.3476683,11.0547095 27.0530001,11.2020436 C26.758332,11.3493777 26.4636683,11.5010428 26.1690001,11.6570436 C26.0649996,11.7263773 25.9523341,11.7957099 25.8310001,11.8650436 C25.7926488,11.8869586 25.7534319,11.9019468 25.7133491,11.9100079 C25.3452319,12.0896528 24.9771185,12.2523301 24.6090001,12.3980436 C24.1929981,12.5627111 23.7856688,12.740376 23.3870001,12.9310436 C22.9363312,13.1217112 22.4813358,13.3080427 22.0220001,13.4900436 C21.5626645,13.6720445 21.1076691,13.8497094 20.6570001,14.0230436 C20.4143323,14.1097107 20.1500016,14.1920432 19.8640001,14.2700436 C19.5779987,14.348044 19.2876683,14.4043768 18.9930001,14.4390436 C18.698332,14.4737104 18.4080016,14.4650439 18.1220001,14.4130436 C17.8359987,14.3610433 17.5803346,14.2397112 17.3550001,14.0490436 C17.1469991,13.8757094 17.0040005,13.6677115 16.9260001,13.4250436 C16.8479998,13.1823757 16.8176667,12.9310449 16.8350001,12.6710436 C16.8523336,12.4110423 16.904333,12.1510449 16.9910001,11.8910436 C17.0776672,11.6310423 17.1729996,11.3970446 17.2770001,11.1890436 C17.519668,10.5823739 17.8229983,10.0190462 18.1870001,9.4990436 C18.551002,8.979041 18.9236649,8.46771278 19.3050001,7.9650436 C19.3743338,7.8783765 19.5779985,7.64004555 19.9160001,7.2500436 C20.2540018,6.86004165 20.6396646,6.41371278 21.0730001,5.9110436 C21.5063356,5.40837442 21.9439979,4.90137949 22.3860001,4.3900436 C22.8280024,3.87870771 23.1876654,3.449712 23.4650001,3.1030436 C23.1876654,3.17237728 22.9146682,3.25904308 22.6460001,3.3630436 C22.3773321,3.46704412 22.121668,3.58837624 21.8790001,3.7270436 C21.4283312,3.96971148 20.9950022,4.22537559 20.5790001,4.4940436 C20.1629981,4.76271161 19.7556688,5.04437546 19.3570001,5.3390436 C18.5596628,5.9457133 17.7926705,6.57837364 17.0560001,7.2370436 C16.3193298,7.89571356 15.5956704,8.58037338 14.8850001,9.2910436 C13.4116594,10.7643843 12.0423398,12.2897024 10.7770001,13.8670436 C10.690333,13.9710441 10.6036672,14.0967095 10.5170001,14.2440436 C10.430333,14.3913777 10.3176675,14.5083765 10.1790001,14.5950436 C10.0403328,14.6817107 9.89733422,14.6817107 9.75000015,14.5950436 C9.60266608,14.5083765 9.52033357,14.3783778 9.50300015,14.2050436 C9.48566673,14.014376 9.57233253,13.8150446 9.76300015,13.6070436 C9.95366777,13.3990426 10.092333,13.225711 10.1790001,13.0870436 L11.2450001,11.6310436 C11.8863367,10.7643726 12.518997,9.8977146 13.1430001,9.0310436 C13.7670033,8.1643726 14.390997,7.2977146 15.0150001,6.4310436 C15.379002,5.92837442 15.7473316,5.43004607 16.1200001,4.9360436 C16.4926687,4.44204113 16.8349986,3.92637962 17.1470001,3.3890436 C17.1990004,3.28504308 17.2899995,3.12471135 17.4200001,2.9080436 C17.5500008,2.69137585 17.6626663,2.46604477 17.7580001,2.2320436 C17.853334,1.99804243 17.9096667,1.76837806 17.9270001,1.5430436 C17.9443336,1.31770914 17.8836675,1.15304412 17.7450001,1.0490436 C17.5716659,0.927709662 17.363668,0.867043602 17.1210001,0.867043602 C16.8783323,0.867043602 16.6270014,0.897376632 16.3670001,0.958043602 C16.1069988,1.01871057 15.855668,1.09670979 15.6130001,1.1920436 C15.3703323,1.28737741 15.1710009,1.36104334 15.0150001,1.4130436 C14.061662,1.759712 13.1516711,2.19737429 12.2850001,2.7260436 C11.4183291,3.25471291 10.5863375,3.84837364 9.78900015,4.5070436 C7.91699079,6.04971798 6.20967453,7.75703424 4.66700015,9.6290436 C4.42433227,9.92371174 4.19033461,10.2140422 3.96500015,10.5000436 C3.73966569,10.786045 3.51433461,11.0763755 3.28900015,11.3710436 C3.08099911,12.0643804 2.7820021,12.7403736 2.39200015,13.3990436 C2.0019982,14.0577136 1.57300249,14.6210413 1.10500015,15.0890436 C0.948999366,15.2450444 0.793000926,15.3533766 0.637000146,15.4140436 C0.480999366,15.4747106 0.346667376,15.4920437 0.234000146,15.4660436 C0.121332916,15.4400435 0.0476669863,15.3793774 0.0130001463,15.2840436 C-0.0216666937,15.1887098 0.0129996263,15.0457112 0.117000146,14.8550436 C0.394334866,14.2657073 0.719331616,13.7110462 1.09200015,13.1910436 C1.46466868,12.671041 1.84166491,12.1597128 2.22300015,11.6570436 C2.44833461,11.1023742 2.56100015,10.5043801 2.56100015,9.8630436 C2.56100015,9.7763765 2.5393337,9.67237754 2.49600015,9.5510436 C2.4526666,9.42970966 2.42233357,9.30404425 2.40500015,9.1740436 C2.38766673,9.04404295 2.38333344,8.92271083 2.39200015,8.8100436 C2.40066686,8.69737637 2.45699963,8.5977107 2.56100015,8.5110436 C2.69966751,8.40704308 2.84266608,8.38537663 2.99000015,8.4460436 C3.13733422,8.50671057 3.23699989,8.60637624 3.28900015,8.7450436 C3.41033409,9.16104568 3.47100015,9.5857081 3.47100015,10.0190436 C4.09500327,9.25637312 4.74499677,8.51538053 5.42100015,7.7960436 C6.09700353,7.07670667 6.79899651,6.37904698 7.52700015,5.7030436 C8.23767037,5.04437364 8.9613298,4.40304672 9.69800015,3.7790436 C10.4346705,3.15504048 11.2103294,2.57437962 12.0250001,2.0370436 C12.7530038,1.56904126 13.5416626,1.12704568 14.3910001,0.711043602 C15.2403377,0.295041522 16.1069957,0.0610438617 16.9910001,0.00904360169 C17.3896688,-0.0256232383 17.766665,0.0393761117 18.1220001,0.204043602 C18.4773353,0.368711092 18.698333,0.667708102 18.7850001,1.1010436 C18.8543338,1.49971226 18.8110009,1.88970836 18.6550001,2.2710436 C18.4989994,2.65237884 18.3170012,3.0163752 18.1090001,3.3630436 C17.6236644,4.19504776 17.06467,4.97937325 16.4320001,5.7160436 C15.7993303,6.45271395 15.2056696,7.2110397 14.6510001,7.9910436 C14.4256657,8.30304516 14.2046679,8.61070875 13.9880001,8.9140436 C13.7713324,9.21737845 13.5676678,9.52504204 13.3770001,9.8370436 C14.1743375,9.02237286 14.9933293,8.23804737 15.8340001,7.4840436 C16.674671,6.73003983 17.5369957,5.99771382 18.4210001,5.2870436 C19.1490038,4.71504074 19.9159961,4.13871317 20.7220001,3.5580436 C21.5280042,2.97737403 22.3816623,2.54837832 23.2830001,2.2710436 C23.4043341,2.23637676 23.5559992,2.19737715 23.7380001,2.1540436 C23.9200011,2.11071005 24.0976659,2.0890436 24.2710001,2.0890436 C24.4443343,2.0890436 24.5873329,2.1323765 24.7000001,2.2190436 C24.8126674,2.3057107 24.851667,2.45304256 24.8170001,2.6610436 C24.7649999,2.93837832 24.6133347,3.19837572 24.3620001,3.4410436 C24.1106656,3.68371148 23.8983343,3.8917094 23.7250001,4.0650436 C23.1703307,4.63704646 22.5940031,5.21770732 21.9960001,5.8070436 C21.3979972,6.39637988 20.8260029,7.00737377 20.2800001,7.6400436 C19.7339974,8.27271343 19.2443356,8.94004009 18.8110001,9.6420436 C18.3776646,10.3440471 18.0570012,11.0850397 17.8490001,11.8650436 C17.7969999,12.0557112 17.7623336,12.2420427 17.7450001,12.4240436 C17.7276667,12.6060445 17.7363333,12.7750428 17.7710001,12.9310436 C17.805667,13.0870444 17.8836662,13.2213764 18.0050001,13.3340436 C18.1263341,13.4467108 18.3083323,13.5117102 18.5510001,13.5290436 C19.0190025,13.5637104 19.4999977,13.5247108 19.9940001,13.4120436 C20.4880026,13.2993764 20.9603312,13.173711 21.4110001,13.0350436 C21.8616691,12.8963762 22.3123312,12.7317112 22.7630001,12.5410436 C23.2136691,12.350376 23.6556646,12.1597112 24.0890001,11.9690436 L25.383935,11.3992723 L25.383935,11.3992723 C25.4130013,11.3755895 25.4493563,11.3575133 25.4930001,11.3450436 C26.5156719,10.8423744 27.5123286,10.3310462 28.4830001,9.8110436 C28.7603349,9.67237624 29.0723317,9.48171148 29.4190001,9.2390436 C29.7656685,8.99637572 30.0949986,8.84037728 30.4070001,8.7710436 C30.5976678,8.73637676 30.7536662,8.8057094 30.8750001,8.9790436 C30.9963341,9.1523778 30.9876675,9.3257094 30.8490001,9.4990436 C30.762333,9.65504438 30.6366676,9.79804295 30.4720001,9.9280436 C30.3073327,10.0580443 30.1643341,10.1923762 30.0430001,10.3310436 C29.6963317,10.7470457 29.4103346,11.1890413 29.1850001,11.6570436 C29.1329999,11.7437107 29.0810004,11.8477097 29.0290001,11.9690436 C28.9769999,12.0903775 28.933667,12.216043 28.8990001,12.3460436 C28.8643333,12.4760443 28.8470001,12.5930431 28.8470001,12.6970436 C28.8470001,12.8010441 28.8816665,12.8790433 28.9510001,12.9310436 C29.0030004,12.9830439 29.1156659,12.970044 29.2890001,12.8920436 C29.4623343,12.8140432 29.6529991,12.7187108 29.8610001,12.6060436 C30.0690012,12.4933764 30.2596659,12.3807108 30.4330001,12.2680436 C30.6063343,12.1553764 30.7103333,12.0817104 30.7450001,12.0470436 C31.109002,11.8043757 31.4513319,11.5530449 31.7720001,11.2930436 C32.0926684,11.0330423 32.400332,10.7557117 32.6950001,10.4610436 C32.7643338,10.3917099 32.8596662,10.3310439 32.9810001,10.2790436 C33.1023341,10.2270433 33.2149996,10.2097102 33.3190001,10.2270436 C33.4230007,10.244377 33.5053332,10.2920432 33.5660001,10.3700436 C33.6266671,10.448044 33.6483336,10.5650428 33.6310001,10.7210436 C33.5789999,10.9117112 33.4836675,11.1067093 33.3450001,11.3060436 C33.2063328,11.5053779 33.0936672,11.6830428 33.0070001,11.8390436 C32.8683328,12.0297112 32.7470007,12.220376 32.6430001,12.4110436 C32.5389996,12.6017112 32.4263341,12.792376 32.3050001,12.9830436 L30.2770001,16.6750436 C30.8663364,15.8950397 31.5163299,15.167047 32.2270001,14.4910436 C32.2963338,14.4217099 32.4523323,14.2743781 32.6950001,14.0490436 C32.937668,13.8237091 33.2149986,13.5723783 33.5270001,13.2950436 C33.8390017,13.0177089 34.172665,12.736045 34.5280001,12.4500436 C34.8833353,12.1640422 35.2213319,11.9170446 35.5420001,11.7090436 C35.716514,11.5958455 35.8769088,11.500616 36.0231861,11.4233544 C36.0549931,11.3946053 36.0982644,11.3685018 36.1530001,11.3450436 C36.3436678,11.2410431 36.6729978,11.0633782 37.1410001,10.8120436 C37.6090025,10.560709 38.0899977,10.3223781 38.5840001,10.0970436 C39.0780026,9.87170914 39.5329981,9.7157107 39.9490001,9.6290436 C40.3650022,9.5423765 40.6249996,9.61170914 40.7290001,9.8370436 C40.7983338,10.0103778 40.7766674,10.1793761 40.6640001,10.3440436 C40.5513329,10.5087111 40.4690004,10.6603762 40.4170001,10.7990436 L40.1050001,11.5270436 C40.3303346,11.3883762 40.5556657,11.2670441 40.7810001,11.1630436 C41.0063346,11.0590431 41.2316657,10.9550441 41.4570001,10.8510436 C42.0116696,10.5563755 42.5836639,10.2443786 43.1730001,9.9150436 C43.7623364,9.58570862 44.3603304,9.3343778 44.9670001,9.1610436 C45.1923346,9.10904334 45.3916659,9.10471005 45.5650001,9.1480436 C45.7383343,9.19137715 45.8726663,9.26937637 45.9680001,9.3820436 C46.063334,9.49471083 46.1110001,9.64204269 46.1110001,9.8240436 C46.1110001,10.0060445 46.0416675,10.2010426 45.9030001,10.4090436 C45.7469994,10.6517115 45.5780011,10.868376 45.3960001,11.0590436 C45.2139992,11.2497112 45.0276678,11.4577091 44.8370001,11.6830436 C44.8023333,11.7350439 44.7416672,11.8043765 44.6550001,11.8910436 C44.568333,11.9777107 44.477334,12.0773764 44.3820001,12.1900436 C44.2866663,12.3027108 44.2000005,12.4153764 44.1220001,12.5280436 C44.0439998,12.6407108 43.9963336,12.7403765 43.9790001,12.8270436 C44.1003341,12.8617104 44.2519992,12.8617104 44.4340001,12.8270436 C44.6160011,12.7923768 44.7979992,12.7447106 44.9800001,12.6840436 C45.1620011,12.6233766 45.3353327,12.5583773 45.5000001,12.4890436 C45.6646676,12.4197099 45.790333,12.3677104 45.8770001,12.3330436 L46.9430001,11.8650436 C47.0123338,11.8303768 47.1033329,11.7783773 47.2160001,11.7090436 C47.3286674,11.6397099 47.4456662,11.5747106 47.5670001,11.5140436 C47.6883341,11.4533766 47.8053329,11.3970439 47.9180001,11.3450436 C47.9833326,11.3148902 48.0413791,11.2934794 48.0921403,11.2808112 L48.0921403,11.2808112 C48.6691584,11.0138961 49.22644,10.7233095 49.7640001,10.4090436 C50.3273363,10.0797086 50.8776641,9.71571226 51.4150001,9.3170436 L51.7790001,8.6930436 C51.5189988,8.71037702 51.2330017,8.74504334 50.9210001,8.7970436 C50.6089986,8.84904386 50.3576678,8.82304412 50.1670001,8.7190436 C50.0283328,8.6323765 49.9806666,8.51104438 50.0240001,8.3550436 C50.0673337,8.19904282 50.1669994,8.1210436 50.3230001,8.1210436 C50.6350017,8.13837702 50.9469986,8.14271031 51.2590001,8.1340436 C51.5710017,8.12537689 51.8829986,8.10371044 52.1950001,8.0690436 C52.6803359,7.32370654 53.204664,6.54804763 53.7680001,5.7420436 C54.3313363,4.93603957 54.9683299,4.25571304 55.6790001,3.7010436 C55.8176675,3.6143765 55.9606661,3.5277107 56.1080001,3.4410436 C56.2553342,3.3543765 56.4069994,3.30237702 56.5630001,3.2850436 C56.7363343,3.2850436 56.866333,3.35437624 56.9530001,3.4930436 C57.0396672,3.63171096 57.0570004,3.77904282 57.0050001,3.9350436 C56.918333,4.281712 56.7276683,4.61537533 56.4330001,4.9360436 C56.138332,5.25671187 55.8870012,5.5470423 55.6790001,5.8070436 C55.4189988,6.153712 55.1460016,6.49170862 54.8600001,6.8210436 C54.5739987,7.15037858 54.2836683,7.47104204 53.9890001,7.7830436 L55.5230001,7.4190436 L58.0970001,6.6390436 C58.2183341,6.58704334 58.3439995,6.54804373 58.4740001,6.5220436 C58.6040008,6.49604347 58.7209996,6.55237624 58.8250001,6.6910436 C58.9290007,6.82971096 58.9550004,6.97270953 58.9030001,7.1200436 C58.8509999,7.26737767 58.7556675,7.36704334 58.6170001,7.4190436 C57.8196628,7.69637832 56.9876711,7.91304282 56.1210001,8.0690436 C55.2543291,8.22504438 54.4050043,8.35504308 53.5730001,8.4590436 L53.2090001,8.5370436 C53.0009991,8.72771122 52.7843346,8.91837598 52.5590001,9.1090436 C52.3336657,9.29971122 52.099668,9.49037598 51.8570001,9.6810436 C51.7356662,9.8543778 51.6316672,10.0320427 51.5450001,10.2140436 C51.458333,10.3960445 51.3716672,10.582376 51.2850001,10.7730436 C51.2503333,10.8250439 51.1983338,10.9550426 51.1290001,11.1630436 C51.0596665,11.3710446 50.9946671,11.5833759 50.9340001,11.8000436 C50.8733332,12.0167114 50.825667,12.2160427 50.7910001,12.3980436 C50.7563333,12.5800445 50.7649999,12.6710436 50.8170001,12.6710436 C51.181002,12.7577107 51.5753314,12.7360443 52.0000001,12.6060436 C52.4246689,12.476043 52.7929986,12.3677107 53.1050001,12.2810436 C53.5036688,12.1423762 53.9023315,12.003711 54.3010001,11.8650436 C54.6996688,11.7263762 55.0983315,11.5703778 55.4970001,11.3970436 C55.560094,11.3760123 55.6343513,11.3581709 55.7197728,11.3435193 C55.7314886,11.3350636 55.7438977,11.3269051 55.7570001,11.3190436 C56.3636698,11.0417089 56.948664,10.7383786 57.5120001,10.4090436 C58.0753363,10.0797086 58.6256641,9.71571226 59.1630001,9.3170436 L59.5270001,8.6930436 C59.2669988,8.71037702 58.9810017,8.74504334 58.6690001,8.7970436 C58.3569986,8.84904386 58.1056678,8.82304412 57.9150001,8.7190436 C57.7763328,8.6323765 57.7286666,8.51104438 57.7720001,8.3550436 C57.8153337,8.19904282 57.9149994,8.1210436 58.0710001,8.1210436 C58.3830017,8.13837702 58.6949986,8.14271031 59.0070001,8.1340436 C59.3190017,8.12537689 59.6309986,8.10371044 59.9430001,8.0690436 C60.4283359,7.32370654 60.952664,6.54804763 61.5160001,5.7420436 C62.0793363,4.93603957 62.7163299,4.25571304 63.4270001,3.7010436 C63.5656675,3.6143765 63.7086661,3.5277107 63.8560001,3.4410436 C64.0033342,3.3543765 64.1549994,3.30237702 64.3110001,3.2850436 C64.4843343,3.2850436 64.614333,3.35437624 64.7010001,3.4930436 C64.7876672,3.63171096 64.8050004,3.77904282 64.7530001,3.9350436 C64.666333,4.281712 64.4756683,4.61537533 64.1810001,4.9360436 C63.886332,5.25671187 63.6350012,5.5470423 63.4270001,5.8070436 C63.1669988,6.153712 62.8940016,6.49170862 62.6080001,6.8210436 C62.3219987,7.15037858 62.0316683,7.47104204 61.7370001,7.7830436 L63.2710001,7.4190436 L65.8450001,6.6390436 C65.9663341,6.58704334 66.0919995,6.54804373 66.2220001,6.5220436 C66.3520008,6.49604347 66.4689996,6.55237624 66.5730001,6.6910436 C66.6770007,6.82971096 66.7030004,6.97270953 66.6510001,7.1200436 C66.5989999,7.26737767 66.5036675,7.36704334 66.3650001,7.4190436 C65.5676628,7.69637832 64.7356711,7.91304282 63.8690001,8.0690436 C63.0023291,8.22504438 62.1530043,8.35504308 61.3210001,8.4590436 L60.9570001,8.5370436 C60.7489991,8.72771122 60.5323346,8.91837598 60.3070001,9.1090436 C60.0816657,9.29971122 59.847668,9.49037598 59.6050001,9.6810436 C59.4836662,9.8543778 59.3796672,10.0320427 59.2930001,10.2140436 C59.206333,10.3960445 59.1196672,10.582376 59.0330001,10.7730436 C58.9983333,10.8250439 58.9463338,10.9550426 58.8770001,11.1630436 C58.8076665,11.3710446 58.7426671,11.5833759 58.6820001,11.8000436 C58.6213332,12.0167114 58.573667,12.2160427 58.5390001,12.3980436 C58.5043333,12.5800445 58.5129999,12.6710436 58.5650001,12.6710436 C58.929002,12.7577107 59.3233314,12.7360443 59.7480001,12.6060436 C60.1726689,12.476043 60.5409986,12.3677107 60.8530001,12.2810436 C61.2516688,12.1423762 61.6503315,12.003711 62.0490001,11.8650436 C62.4476688,11.7263762 62.8463315,11.5703778 63.2450001,11.3970436 C63.3052531,11.3769593 63.3756867,11.3597841 63.4563019,11.3455178 L63.4563019,11.3455178 C63.4714193,11.3365424 63.4876521,11.3277176 63.5050001,11.3190436 L66.1050001,10.0710436 C66.1743338,10.0363768 66.3346656,9.96704412 66.5860001,9.8630436 C66.8373347,9.75904308 67.0843323,9.68104386 67.3270001,9.6290436 C67.569668,9.57704334 67.7776659,9.57271005 67.9510001,9.6160436 C68.1243343,9.65937715 68.1850004,9.81970888 68.1330001,10.0970436 C68.0983333,10.2530444 68.0246674,10.4090428 67.9120001,10.5650436 C67.7993329,10.7210444 67.7170004,10.8770428 67.6650001,11.0330436 C67.5609996,11.2583781 67.461334,11.5357086 67.3660001,11.8650436 C67.2706663,12.1943786 67.3009994,12.4630426 67.4570001,12.6710436 C67.7516683,12.7057104 68.076665,12.6710441 68.4320001,12.5670436 C68.7873353,12.4630431 69.112332,12.3590441 69.4070001,12.2550436 C69.4936672,12.2203768 69.6583323,12.133711 69.9010001,11.9950436 C70.143668,11.8563762 70.3993321,11.7220443 70.6680001,11.5920436 C70.9366682,11.462043 71.1836657,11.3667106 71.4090001,11.3060436 C71.4215817,11.3026563 71.4338931,11.2995256 71.4459342,11.2966516 C71.6433073,11.1894707 71.9429939,11.0279359 72.3450001,10.8120436 C72.8130025,10.560709 73.2939977,10.3223781 73.7880001,10.0970436 C74.2820026,9.87170914 74.7369981,9.7157107 75.1530001,9.6290436 C75.5690022,9.5423765 75.8289996,9.61170914 75.9330001,9.8370436 C76.0023338,10.0103778 75.9806674,10.1793761 75.8680001,10.3440436 C75.7553329,10.5087111 75.6730004,10.6603762 75.6210001,10.7990436 L75.3090001,11.5270436 C75.5343346,11.3883762 75.7596657,11.2670441 75.9850001,11.1630436 C76.2103346,11.0590431 76.4356657,10.9550441 76.6610001,10.8510436 C77.2156696,10.5563755 77.7876639,10.2443786 78.3770001,9.9150436 C78.9663364,9.58570862 79.5643304,9.3343778 80.1710001,9.1610436 C80.3963346,9.10904334 80.5956659,9.10471005 80.7690001,9.1480436 C80.9423343,9.19137715 81.0766663,9.26937637 81.1720001,9.3820436 C81.267334,9.49471083 81.3150001,9.64204269 81.3150001,9.8240436 C81.3150001,10.0060445 81.2456675,10.2010426 81.1070001,10.4090436 C80.9509994,10.6517115 80.7820011,10.868376 80.6000001,11.0590436 C80.4179992,11.2497112 80.2316678,11.4577091 80.0410001,11.6830436 C80.0063333,11.7350439 79.9456672,11.8043765 79.8590001,11.8910436 C79.772333,11.9777107 79.681334,12.0773764 79.5860001,12.1900436 C79.4906663,12.3027108 79.4040005,12.4153764 79.3260001,12.5280436 C79.2479998,12.6407108 79.2003336,12.7403765 79.1830001,12.8270436 C79.3043341,12.8617104 79.4559992,12.8617104 79.6380001,12.8270436 C79.8200011,12.7923768 80.0019992,12.7447106 80.1840001,12.6840436 C80.3660011,12.6233766 80.5393327,12.5583773 80.7040001,12.4890436 C80.8686676,12.4197099 80.994333,12.3677104 81.0810001,12.3330436 L82.1470001,11.8650436 C82.2163338,11.8303768 82.3073329,11.7783773 82.4200001,11.7090436 C82.5326674,11.6397099 82.6496662,11.5747106 82.7710001,11.5140436 C82.8923341,11.4533766 83.0093329,11.3970439 83.1220001,11.3450436 C83.2192613,11.3001538 83.300375,11.2746401 83.3653429,11.268502 L83.3653429,11.268502 C83.6465229,11.1258464 83.938073,10.9693615 84.2400001,10.7990436 C84.5780018,10.608376 84.9203317,10.443711 85.2670001,10.3050436 C85.4923346,9.90637494 85.8129981,9.58137819 86.2290001,9.3300436 C86.6450022,9.07870901 87.0869978,8.9097107 87.5550001,8.8230436 C87.797668,8.78837676 88.0793319,8.78837676 88.4000001,8.8230436 C88.7206684,8.85771044 88.9676659,8.98770914 89.1410001,9.2130436 C89.2623341,9.35171096 89.2926671,9.49904282 89.2320001,9.6550436 C89.1713332,9.81104438 89.0673342,9.95837624 88.9200001,10.0970436 C88.7726661,10.235711 88.6080011,10.3613764 88.4260001,10.4740436 C88.2439992,10.5867108 88.1096672,10.6690433 88.0230001,10.7210436 C87.7109986,10.9117112 87.3686687,11.0547098 86.9960001,11.1500436 C86.6233316,11.2453774 86.2463354,11.2757104 85.8650001,11.2410436 L85.7610001,11.2410436 C85.8303338,11.6223788 85.9863323,11.9170426 86.2290001,12.1250436 C86.471668,12.3330446 86.7576652,12.4847098 87.0870001,12.5800436 C87.4163351,12.6753774 87.758665,12.714377 88.1140001,12.6970436 C88.4693353,12.6797102 88.794332,12.6450439 89.0890001,12.5930436 C89.5050022,12.5063765 89.9123315,12.3980443 90.3110001,12.2680436 C90.7096688,12.138043 91.0996649,11.9863778 91.4810001,11.8130436 C91.6543343,11.7263765 91.8319992,11.644044 92.0140001,11.5660436 C92.0841568,11.5359765 92.1523814,11.5052656 92.2186742,11.4739109 C92.2483036,11.4245369 92.3057454,11.3815814 92.3910001,11.3450436 C92.5816678,11.2410431 92.9109978,11.0633782 93.3790001,10.8120436 C93.8470025,10.560709 94.3279977,10.3223781 94.8220001,10.0970436 C95.3160026,9.87170914 95.7709981,9.7157107 96.1870001,9.6290436 C96.6030022,9.5423765 96.8629996,9.61170914 96.9670001,9.8370436 C97.0363338,10.0103778 97.0146674,10.1793761 96.9020001,10.3440436 C96.7893329,10.5087111 96.7070004,10.6603762 96.6550001,10.7990436 L96.3430001,11.5270436 C96.5683346,11.3883762 96.7936657,11.2670441 97.0190001,11.1630436 C97.2443346,11.0590431 97.4696657,10.9550441 97.6950001,10.8510436 C98.2496696,10.5563755 98.8216639,10.2443786 99.4110001,9.9150436 C100.000336,9.58570862 100.59833,9.3343778 101.205,9.1610436 C101.430335,9.10904334 101.629666,9.10471005 101.803,9.1480436 C101.976334,9.19137715 102.110666,9.26937637 102.206,9.3820436 C102.301334,9.49471083 102.349,9.64204269 102.349,9.8240436 C102.349,10.0060445 102.279668,10.2010426 102.141,10.4090436 C101.984999,10.6517115 101.816001,10.868376 101.634,11.0590436 C101.451999,11.2497112 101.265668,11.4577091 101.075,11.6830436 C101.040333,11.7350439 100.979667,11.8043765 100.893,11.8910436 C100.806333,11.9777107 100.715334,12.0773764 100.62,12.1900436 C100.524666,12.3027108 100.438001,12.4153764 100.36,12.5280436 C100.282,12.6407108 100.234334,12.7403765 100.217,12.8270436 C100.338334,12.8617104 100.489999,12.8617104 100.672,12.8270436 C100.854001,12.7923768 101.035999,12.7447106 101.218,12.6840436 C101.400001,12.6233766 101.573333,12.5583773 101.738,12.4890436 C101.902668,12.4197099 102.028333,12.3677104 102.115,12.3330436 L103.181,11.8650436 C103.250334,11.8303768 103.341333,11.7783773 103.454,11.7090436 C103.566667,11.6397099 103.683666,11.5747106 103.805,11.5140436 C103.926334,11.4533766 104.043333,11.3970439 104.156,11.3450436 C104.268667,11.2930433 104.359666,11.2670436 104.429,11.2670436 C104.585001,11.2670436 104.663,11.3450428 104.663,11.5010436 C104.663,11.6570444 104.593668,11.7783765 104.455,11.8650436 C104.298999,11.9517107 104.134334,12.0340432 103.961,12.1120436 C103.787666,12.190044 103.605668,12.2723765 103.415,12.3590436 C103.172332,12.497711 102.938335,12.6190431 102.713,12.7230436 C102.487666,12.8270441 102.253668,12.9397097 102.011,13.0610436 C101.872333,13.1303773 101.651335,13.230043 101.348,13.3600436 C101.044665,13.4900443 100.741335,13.5853766 100.438,13.6460436 C100.134665,13.7067106 99.8703346,13.698044 99.6450001,13.6200436 C99.4196657,13.5420432 99.3070001,13.329712 99.3070001,12.9830436 C99.3070001,12.8097094 99.350333,12.653711 99.4370001,12.5150436 C99.5236672,12.3763762 99.6233329,12.2420443 99.7360001,12.1120436 C99.8486674,11.982043 99.9699995,11.8563775 100.1,11.7350436 C100.230001,11.6137097 100.347,11.5010441 100.451,11.3970436 C100.555001,11.3103765 100.728332,11.1283783 100.971,10.8510436 C101.213668,10.5737089 101.369666,10.3137115 101.439,10.0710436 C100.970998,10.1230439 100.498669,10.244376 100.022,10.4350436 C99.5453311,10.6257112 99.1076688,10.8250426 98.7090001,11.0330436 C98.206331,11.2757115 97.6863362,11.5487088 97.1490001,11.8520436 C96.6116641,12.1553785 96.1436688,12.5150415 95.7450001,12.9310436 C95.658333,13.0003773 95.567334,13.0393769 95.4720001,13.0480436 C95.3766663,13.0567103 95.2856672,13.0393772 95.1990001,12.9960436 C95.112333,12.9527101 95.0473337,12.8877107 95.0040001,12.8010436 C94.9606666,12.7143765 94.9563333,12.601711 94.9910001,12.4630436 C95.0430004,12.3070428 95.1729991,12.1683775 95.3810001,12.0470436 C95.4676672,11.9083762 95.554333,11.7480445 95.6410001,11.5660436 C95.7276672,11.3840427 95.7883333,11.2757104 95.8230001,11.2410436 C95.857667,11.1197097 95.8923333,10.9940443 95.9270001,10.8640436 C95.961667,10.734043 95.9876667,10.599711 96.0050001,10.4610436 C95.8143325,10.5130439 95.6236678,10.5737099 95.4330001,10.6430436 C95.2423325,10.7123773 95.0950007,10.7643768 94.9910001,10.7990436 C94.7483323,10.9030441 94.505668,11.0027098 94.2630001,11.0980436 C94.0203323,11.1933774 93.777668,11.3017097 93.5350001,11.4230436 C93.3963328,11.4923773 93.2706674,11.5617099 93.1580001,11.6310436 C93.0778044,11.6803948 92.9910231,11.7253546 92.897655,11.7659236 Z M25.383935,11.3992723 L25.3890001,11.3970436 C25.4756672,11.3623768 25.5579998,11.3233772 25.6360001,11.2800436 C25.7140005,11.2367101 25.796333,11.2497099 25.8830001,11.3190436 C25.9870007,11.3710439 26.0346669,11.4577097 26.0260001,11.5790436 C26.0173334,11.7003775 25.9610007,11.7870433 25.8570001,11.8390436 C25.8091164,11.8629855 25.7612327,11.8866403 25.7133491,11.9100079 C25.62662,11.9274504 25.5358374,11.9124622 25.4410001,11.8650436 C25.3369996,11.7957099 25.2893334,11.7003775 25.2980001,11.5790436 C25.3035494,11.5013535 25.3321942,11.4414299 25.383935,11.3992723 L25.383935,11.3992723 Z M36.5270273,11.8207392 C36.5741106,11.7791741 36.6184348,11.7376089 36.6600001,11.6960436 C36.8073342,11.5487095 36.8550004,11.4230441 36.8030001,11.3190436 C36.7336665,11.1977097 36.5863346,11.1803765 36.3610001,11.2670436 C36.258297,11.3065448 36.1456926,11.3586483 36.0231861,11.4233544 C35.9844857,11.4583342 35.9627572,11.4972305 35.9580001,11.5400436 C35.9493334,11.618044 35.9709999,11.6830433 36.0230001,11.7350436 C36.0750004,11.7870439 36.1486663,11.8260435 36.2440001,11.8520436 C36.3344429,11.8767098 36.4287845,11.8662751 36.5270273,11.8207392 L36.5270273,11.8207392 Z M48.0921403,11.2808112 C48.1289178,11.2716328 48.161871,11.2670436 48.1910001,11.2670436 C48.3470009,11.2670436 48.4250001,11.3450428 48.4250001,11.5010436 C48.4250001,11.6570444 48.3556675,11.7783765 48.2170001,11.8650436 C48.1901527,11.8799589 48.1630486,11.8947457 48.1356879,11.9094043 C48.0884606,11.9157795 48.0462314,11.9096593 48.0090001,11.8910436 C47.9396665,11.8563768 47.887667,11.8043773 47.8530001,11.7350436 C47.8183333,11.6657099 47.814,11.592044 47.8400001,11.5140436 C47.8660003,11.4360432 47.922333,11.3710439 48.0090001,11.3190436 C48.0367589,11.3063539 48.0644723,11.2936097 48.0921403,11.2808112 L48.0921403,11.2808112 Z M55.0290001,5.6510436 C55.1156672,5.52970966 55.1979998,5.39971096 55.2760001,5.2610436 C55.3540005,5.12237624 55.436333,4.98371096 55.5230001,4.8450436 C55.3496659,5.0183778 55.1893342,5.1917094 55.0420001,5.3650436 C54.8946661,5.5383778 54.7690007,5.67704308 54.6650001,5.7810436 C54.3529986,6.127712 54.0496683,6.47870849 53.7550001,6.8340436 C53.460332,7.18937871 53.191668,7.56637494 52.9490001,7.9650436 C53.729004,7.25437338 54.4223304,6.48304776 55.0290001,5.6510436 Z M55.9342202,11.8983833 C56.0459593,11.8351878 56.1082189,11.746075 56.1210001,11.6310436 C56.1383336,11.4057091 56.0646676,11.3017102 55.9000001,11.3190436 C55.8352313,11.3258614 55.7751556,11.3340199 55.7197728,11.3435193 C55.6539934,11.3909943 55.6100696,11.4478354 55.5880001,11.5140436 C55.562,11.592044 55.5663333,11.6657099 55.6010001,11.7350436 C55.635667,11.8043773 55.6876665,11.8563768 55.7570001,11.8910436 C55.8070437,11.9160654 55.8661167,11.918512 55.9342202,11.8983833 L55.9342202,11.8983833 Z M62.7770001,5.6510436 C62.8636672,5.52970966 62.9459998,5.39971096 63.0240001,5.2610436 C63.1020005,5.12237624 63.184333,4.98371096 63.2710001,4.8450436 C63.0976659,5.0183778 62.9373342,5.1917094 62.7900001,5.3650436 C62.6426661,5.5383778 62.5170007,5.67704308 62.4130001,5.7810436 C62.1009986,6.127712 61.7976683,6.47870849 61.5030001,6.8340436 C61.208332,7.18937871 60.939668,7.56637494 60.6970001,7.9650436 C61.477004,7.25437338 62.1703304,6.48304776 62.7770001,5.6510436 Z M63.4563019,11.3455178 C63.5148338,11.3351596 63.5787331,11.3263349 63.6480001,11.3190436 C63.8126676,11.3017102 63.8863336,11.4057091 63.8690001,11.6310436 C63.8589789,11.721235 63.8185409,11.795493 63.7476856,11.8538182 C63.589219,11.8776492 63.4606582,11.825058 63.3620001,11.6960436 C63.2587298,11.5609978 63.2901633,11.4441568 63.4563019,11.3455178 L63.4563019,11.3455178 Z M69.1470001,4.8190436 C69.2336672,4.59370914 69.3679992,4.39871109 69.5500001,4.2340436 C69.7320011,4.06937611 69.9356657,3.93504412 70.1610001,3.8310436 C70.3863346,3.72704308 70.6246656,3.64471057 70.8760001,3.5840436 C71.1273347,3.52337663 71.3656657,3.47571044 71.5910001,3.4410436 C72.2150033,3.40637676 72.8303304,3.4323765 73.4370001,3.5190436 C73.5410007,3.5190436 73.6579995,3.53637676 73.7880001,3.5710436 C73.9180008,3.60571044 73.9743336,3.70104282 73.9570001,3.8570436 C73.9396667,3.9437107 73.8963338,4.01737663 73.8270001,4.0780436 C73.7576665,4.13871057 73.6796672,4.16037702 73.5930001,4.1430436 C73.090331,4.03904308 72.5660029,4.00004347 72.0200001,4.0260436 C71.4739974,4.05204373 70.9843356,4.21237546 70.5510001,4.5070436 C70.3776659,4.61104412 70.2563338,4.7497094 70.1870001,4.9230436 C70.1176665,5.0963778 70.0136675,5.23504308 69.8750001,5.3390436 C69.7016659,5.47771096 69.5196678,5.47771096 69.3290001,5.3390436 C69.1383325,5.20037624 69.0776665,5.02704464 69.1470001,4.8190436 Z M71.5684429,11.8642944 C71.6131498,11.830718 71.6553355,11.7963011 71.6950001,11.7610436 C71.8510009,11.6223762 71.8943338,11.4923775 71.8250001,11.3710436 C71.7759033,11.27285 71.6495492,11.2480528 71.4459342,11.2966516 C71.4135321,11.3142472 71.3838874,11.3303778 71.3570001,11.3450436 C71.2356662,11.3970439 71.1706669,11.4620432 71.1620001,11.5400436 C71.1533334,11.618044 71.1749999,11.6830433 71.2270001,11.7350436 C71.2790004,11.7870439 71.3526663,11.8260435 71.4480001,11.8520436 C71.4874075,11.8627911 71.527555,11.8668747 71.5684429,11.8642944 L71.5684429,11.8642944 Z M83.3653429,11.268502 C83.3756338,11.2675297 83.3855195,11.2670436 83.3950001,11.2670436 C83.5510009,11.2670436 83.6290001,11.3450428 83.6290001,11.5010436 C83.6290001,11.6570444 83.5596675,11.7783765 83.4210001,11.8650436 C83.4037569,11.8746232 83.3864078,11.8841498 83.3689528,11.8936235 C83.3256353,11.8843105 83.2823178,11.8661172 83.2390001,11.8390436 C83.1349996,11.7697099 83.0873334,11.6743775 83.0960001,11.5530436 C83.1046669,11.4317097 83.1609996,11.3537104 83.2650001,11.3190436 C83.2982997,11.3023938 83.3317473,11.2855466 83.3653429,11.268502 L83.3653429,11.268502 Z M85.9170001,10.5910436 C86.3330022,10.5737102 86.7359982,10.4697112 87.1260001,10.2790436 C87.5160021,10.088376 87.858332,9.84571174 88.1530001,9.5510436 C87.9103323,9.4643765 87.6720013,9.43837676 87.4380001,9.4730436 C87.203999,9.50771044 86.9873345,9.57704308 86.7880001,9.6810436 C86.5886658,9.78504412 86.4110009,9.91937611 86.2550001,10.0840436 C86.0989994,10.2487111 85.9863338,10.4177094 85.9170001,10.5910436 Z M92.897655,11.7659236 C92.9114802,11.7478514 92.9245953,11.7288914 92.9370001,11.7090436 C93.0410007,11.5530428 93.0280008,11.4403773 92.8980001,11.3710436 C92.7679995,11.3017099 92.6423341,11.2843768 92.5210001,11.3190436 C92.4251336,11.3723028 92.3243587,11.423925 92.2186742,11.4739109 C92.2061352,11.4948056 92.1985772,11.5168498 92.1960001,11.5400436 C92.1873334,11.618044 92.2089999,11.6830433 92.2610001,11.7350436 C92.3130004,11.7870439 92.3866663,11.8260435 92.4820001,11.8520436 C92.577334,11.8780437 92.6769996,11.8650439 92.7810001,11.8130436 C92.820965,11.7980568 92.8598499,11.7823501 92.897655,11.7659236 Z" id="signature" fill-opacity="0.4" fill="#000000"></path>
            <path d="M401,2.29637037 L398.5625,4.59259259 C398.5625,4.59259259 398.5625,4.38451852 398.5625,4.97533333 C398.5625,5.39503704 398.490847,5.79592593 398.386924,6.18518519 C398.330182,9.34422222 397.261965,13.5331852 392.875,16.8395556 C384.245371,23.3432593 375,17.605037 375,17.605037 C382.3125,17.605037 382.3125,15.3086667 382.3125,15.3086667 C380.6875,15.3086667 377.4375,12.246963 377.4375,12.246963 C378.25,13.0123704 379.875,12.246963 379.875,12.246963 C375.812424,9.95066667 375.812424,7.65437037 375.812424,7.65437037 C376.625,8.41977778 378.25,7.65437037 378.25,7.65437037 C374.1875,4.59259259 376.625,0.765407407 376.625,0.765407407 C377.4375,4.59259259 388,6.12348148 388,6.12348148 L388.134435,6.06014815 C388.051541,5.71 388,4.9662963 388,4.59259259 C388,1.84496296 390.364394,0 393.281288,0 C394.886635,0 396.307229,0.689259259 397.275729,1.7542963 L397.75,1.53096296 L400.1875,0 L398.5625,3.06177778 L401,2.29637037 L401,2.29637037 Z" id="twitter" fill="#289BE5"></path>
            <path d="M397.776187,58.7855533 C397.631867,58.0789867 397.41546,57.3828333 397.13474,56.7179933 C396.8593,56.0653267 396.517787,55.4370067 396.120467,54.84946 C395.727253,54.26712 395.275227,53.7196867 394.778173,53.22256 C394.280607,52.7245533 393.733027,52.2726733 393.150687,51.87968 C392.563213,51.4817 391.93394,51.1410667 391.282227,50.8646733 C390.61768,50.5848333 389.921967,50.3675467 389.21496,50.2242533 C388.4905,50.0755333 387.745213,50 387.00044,50 C386.25464,50 385.509427,50.0755333 384.7846,50.2242533 C384.078033,50.3675467 383.38232,50.5848333 382.717773,50.8646733 C382.06606,51.1410667 381.436787,51.4817 380.848873,51.87968 C380.266533,52.2726733 379.718953,52.7245533 379.221387,53.22256 C378.724333,53.7196867 378.272747,54.26712 377.87946,54.84946 C377.482213,55.4370067 377.1407,56.0653267 376.865187,56.7179933 C376.584027,57.3828333 376.368133,58.0789867 376.223373,58.7855533 C376.075167,59.50862 376,60.2543467 376,60.99912 C376,61.7456533 376.075167,62.49138 376.223373,63.2152533 C376.368133,63.92182 376.584027,64.6180467 376.865187,65.2819333 C377.1407,65.9338667 377.482213,66.5638 377.87946,67.1513467 C378.272747,67.7336867 378.724333,68.28024 379.221387,68.7782467 C379.718953,69.2753 380.266533,69.72652 380.848873,70.1201733 C381.436787,70.5172733 382.06606,70.8589333 382.717773,71.13452 C383.38232,71.4160467 384.078033,71.63062 384.7846,71.7757467 C385.509427,71.9253467 386.25464,72 387.00044,72 C387.745213,72 388.4905,71.9253467 389.21496,71.7757467 C389.921967,71.63062 390.61768,71.4160467 391.282227,71.13452 C391.93394,70.8589333 392.563213,70.5172733 393.150687,70.1201733 C393.733027,69.72652 394.280607,69.2753 394.778173,68.7782467 C395.275227,68.28024 395.727253,67.7336867 396.120467,67.1513467 C396.517787,66.5638 396.8593,65.9338667 397.13474,65.2819333 C397.41546,64.6180467 397.631867,63.92182 397.776187,63.2152533 C397.924833,62.49138 398,61.7456533 398,60.99912 C398,60.2543467 397.924833,59.50862 397.776187,58.7855533 L397.776187,58.7855533 Z M396.391287,60.90606 C396.255253,60.87658 393.07596,60.1926 389.84812,60.5984267 C389.782047,60.4378267 389.715093,60.2760533 389.645647,60.1134733 C389.449993,59.65382 389.239747,59.19842 389.02114,58.7508667 C392.730927,57.2368267 394.237193,55.0588267 394.25494,55.0327933 C395.57252,56.63278 396.369507,58.6769467 396.391287,60.90606 L396.391287,60.90606 Z M393.204587,53.94988 C393.18156,53.9864 391.843593,56.0227933 388.297633,57.3515933 C386.691853,54.4009533 384.927673,52.0570733 384.78636,51.8711 C385.496447,51.6989867 386.236967,51.6060733 387.00044,51.6060733 C389.378787,51.6060733 391.54938,52.4925267 393.204587,53.94988 L393.204587,53.94988 Z M384.750353,51.8788733 C384.74984,51.87968 384.748593,51.8806333 384.748593,51.8806333 C384.748593,51.8806333 384.737667,51.8832733 384.72036,51.8867933 C384.729893,51.88408 384.740233,51.8823933 384.750353,51.8788733 L384.750353,51.8788733 Z M382.992113,52.5037467 C383.11678,52.6716067 384.854193,55.0267067 386.480287,57.91648 C381.969627,59.1148933 378.055093,59.0681067 377.806933,59.0637067 C378.417433,56.1539133 380.37206,53.7413933 382.992113,52.5037467 L382.992113,52.5037467 Z M377.606147,60.99912 C377.606147,60.8990933 377.610547,60.8009 377.613993,60.7027067 C377.779507,60.7063 382.421507,60.8113133 387.258207,59.3643 C387.527633,59.8910533 387.784813,60.4263867 388.02036,60.9609133 C387.89606,60.9956 387.77308,61.033 387.6501,61.07304 C382.580493,62.7112333 380.00928,67.2730067 380.00928,67.2730067 C380.00928,67.2730067 380.012287,67.2755733 380.012727,67.2774067 C378.51702,65.6130333 377.606147,63.4125933 377.606147,60.99912 L377.606147,60.99912 Z M387.00044,70.3939267 C384.726447,70.3939267 382.64136,69.58572 381.016147,68.2411533 C381.139933,68.3411067 381.226467,68.4054933 381.226467,68.4054933 C381.226467,68.4054933 383.02724,64.4781267 388.598813,62.5375067 C388.6192,62.52966 388.6401,62.5235 388.660927,62.5174133 C389.982833,65.9520533 390.528653,68.8288467 390.66762,69.64996 C389.540853,70.1289 388.30108,70.3939267 387.00044,70.3939267 L387.00044,70.3939267 Z M392.24942,68.7913733 C392.15394,68.2237733 391.653367,65.4670267 390.420853,62.0812267 C393.453627,61.5961267 396.08138,62.42802 396.275127,62.49138 C395.857127,65.10894 394.35878,67.3668733 392.24942,68.7913733 L392.24942,68.7913733 Z" id="dribbble" fill="#DE6097"></path>
            <path d="M388.25,120 L388.25,112.09212 L386,112.09212 L386,109.216528 L388.25,109.216528 L388.25,106.778241 C388.25,104.862234 389.819075,103 392.79605,103 C394.001375,103 395,103.11071 395,103.11071 L394.25,105.776457 C394.25,105.776457 393.8348,105.768045 392.842925,105.768045 C391.769375,105.768045 391.25,106.242231 391.25,107.029352 L391.25,109.216528 L394.25,109.216528 L393.5,112.09212 L391.25,112.09212 L391.25,120 L388.25,120 L388.25,120 Z M398,102.933333 C398,101.313253 396.686747,100 395.066667,100 L378.933333,100 C377.313253,100 376,101.313253 376,102.933333 L376,119.066667 C376,120.686747 377.313253,122 378.933333,122 L395.066667,122 C396.686747,122 398,120.686747 398,119.066667 L398,102.933333 Z" id="facebook" fill="#3C5A98"></path>
            <path d="M398,183.718318 C397.9751,183.826206 397.9135,183.901806 397.8148,183.944768 C397.7159,183.998581 397.6172,183.998581 397.5185,183.944768 L392.426,181.729181 L390,180.774993 C390,180.699743 390.0247,180.640331 390.0741,180.597106 L397.3519,172.414018 L387.8889,179.545968 C387.7371,179.651843 387.5716,179.601706 387.5186,179.578256 L384.1852,178.122781 C384.0617,178.068968 384,177.988118 384,177.880231 C384,177.761668 384.0556,177.669968 384.1667,177.605306 L399.5,170.036731 C399.6233,169.982918 399.7408,169.988168 399.8519,170.052918 C399.9751,170.117581 400.0246,170.209281 400,170.327843 L398,183.718318 L398,183.718318 Z M388,181.379356 C388,181.379356 388.6875,181.269981 390,182.691856 C388.6875,184.113731 388,184.004356 388,184.004356 C387.862,184.004356 387.7304,183.979856 387.6108,183.935581 C387.4912,183.891306 387.3834,183.827256 387.2929,183.748068 C387.112,183.589781 387,183.371031 387,183.129356 L387,182.254356 C387,181.771181 387.4478,181.379356 388,181.379356 L388,181.379356 L388,181.379356 Z" id="send" fill="#539F00"></path>
            <g id="logo-dark" transform="translate(0.000000, 120.000000)">
                <path d="M8,16 L8,16 L4,25 L1.59872116e-14,17 L8,0 L8,16 L8,16 Z" id="Shape" fill="url(#linearGradient-1)"></path>
                <path d="M17,34 L8,16 L8,0 L17,18 L17,34 L17,34 Z" id="Shape-2" fill="url(#linearGradient-2)"></path>
                <path d="M26,16 L26,16 L30,25 L34,17 L26,0 L26,16 L26,16 Z" id="Shape-3" fill="url(#linearGradient-3)"></path>
                <path d="M17,34 L26,16 L26,0 L17,18 L17,34 L17,34 Z" id="Shape-4" fill="url(#linearGradient-4)"></path>
            </g>
            <g id="logo-light" transform="translate(0.000000, 170.000000)">
                <path d="M8,16 L8,16 L4,25 L1.59872116e-14,17 L8,0 L8,16 L8,16 Z" id="Shape" fill="url(#linearGradient-5)"></path>
                <path d="M17,34 L8,16 L8,0 L17,18 L17,34 L17,34 Z" id="Shape-2" fill="url(#linearGradient-6)"></path>
                <path d="M26,16 L26,16 L30,25 L34,17 L26,0 L26,16 L26,16 Z" id="Shape-3" fill="url(#linearGradient-7)"></path>
                <path d="M17,34 L26,16 L26,0 L17,18 L17,34 L17,34 Z" id="Shape-4" fill="url(#linearGradient-8)"></path>
            </g>
            <path d="M5.00547695,246.69726 L0.0124722838,252.013333 L1.47154669,253.381216 L7.09656055,247.381201 L7.73775536,246.69726 L7.09656055,246.013319 L1.45907441,240 L0,241.367882 L5.00547695,246.69726 Z" id="arrow-white" fill="#FFFFFF"></path>
            <path d="M5.00547695,296.69726 L0.0124722838,302.013333 L1.47154669,303.381216 L7.09656055,297.381201 L7.73775536,296.69726 L7.09656055,296.013319 L1.45907441,290 L0,291.367882 L5.00547695,296.69726 Z" id="arrow-dark" fill="#66B313"></path>
            <path d="M393,235.999913 L391.25,230.749913 L386,228.999913 L400,222 L393,235.999913 L393,235.999913 Z M393,232.499913 L397.375,224.625 L392.125,229.874913 L393,232.499913 L393,232.499913 Z" id="locator" fill="#7ED321"></path>
            <path d="M3.5,454.949747 L4.20710678,455.656854 L4.91421356,454.949747 L8.44974747,451.414214 L7.03553391,450 L4.20710659,452.828427 L1.41421356,450.035534 L0,451.449747 L3.5,454.949747 Z" id="Path-2608" fill="#289BE5"></path>
            <g id="logo-small" transform="translate(0.000000, 325.000000)" fill="#FFFFFF">
                <path d="M24.0957514,22.0740651 L24.9474012,23.877559 L25.8831157,22.116214 L28.8831157,16.4691552 L29.1249772,16.0138865 L28.8944272,15.5527864 L22.8944272,3.5527864 L21,-0.236067977 L21,4 L21,15.2941176 L21,15.5183564 L21.0957514,15.721124 L24.0957514,22.0740651 Z M22,3.93994141 C21.8315295,3.9797119 22,6.23606798 22,6.23606798 L22,15.2941176 L24.4671273,20.5186226 L24.7859045,21.1936802 L25,21.6470588 L25.2352284,21.2042759 L25.5854714,20.5449949 L28,16 L23,6 C23,6 22.1684705,3.90017091 22,3.93994141 Z" id="Shape-3"></path>
                <path d="M21.9042486,15.721124 L22,15.5183564 L22,15.2941176 L22,4 L22,-0.459532851 L20.0957514,3.57299369 L14.0957514,16.278876 L14,16.4816436 L14,16.7058824 L14,28 L14,32.4595329 L15.9042486,28.4270063 L21.9042486,15.721124 Z M15,25.6581142 L15,16.7058824 L20,6.11764706 L21,4 L21,6.34188579 L21,15.2941176 L16,25.8823529 L15,27.7757613 L15,25.6581142 Z" id="Shape-4"></path>
                <path d="M15,32.4595329 L15,28 L15,16.7058824 L15,16.4816436 L14.9042486,16.278876 L8.90424865,3.57299369 L7,-0.459532851 L7,4 L7,15.2941176 L7,15.5183564 L7.09575135,15.721124 L13.0957514,28.4270063 L15,32.4595329 Z M14,28 L13,25.8823529 L8,15.2941176 L8,6.34188579 L8,4 L9,6.11764706 L14,16.7058824 L14,25.6581142 L14,28 Z" id="Shape-2"></path>
                <path d="M3.82352941,23.8831268 L4.7179566,22.0942724 L7.89442719,15.7413312 L8,15.5301856 L8,15.2941176 L8,4 L8,-0.236067977 L6.10557281,3.5527864 L0.105572809,15.5527864 L-0.118033989,16 L0.105572809,16.4472136 L2.92910222,22.0942724 L3.82352941,23.8831268 Z M3.82352941,21.6470588 L3.26451242,20.5290248 L1,16 L6,6 L7,4 L7,6.23606798 L7,15.2941176 L4.38254641,20.5290248 L3.82352941,21.6470588 Z" id="Shape"></path>
            </g>
            <g id="logo-small-2" transform="translate(50.000000, 325.000000)" fill="#000000">
                <path d="M24.0957514,22.0740651 L24.9474012,23.877559 L25.8831157,22.116214 L28.8831157,16.4691552 L29.1249772,16.0138865 L28.8944272,15.5527864 L22.8944272,3.5527864 L21,-0.236067977 L21,4 L21,15.2941176 L21,15.5183564 L21.0957514,15.721124 L24.0957514,22.0740651 Z M22,3.93994141 C21.8315295,3.9797119 22,6.23606798 22,6.23606798 L22,15.2941176 L24.4671273,20.5186226 L24.7859045,21.1936802 L25,21.6470588 L25.2352284,21.2042759 L25.5854714,20.5449949 L28,16 L23,6 C23,6 22.1684705,3.90017091 22,3.93994141 Z" id="Shape-3"></path>
                <path d="M21.9042486,15.721124 L22,15.5183564 L22,15.2941176 L22,4 L22,-0.459532851 L20.0957514,3.57299369 L14.0957514,16.278876 L14,16.4816436 L14,16.7058824 L14,28 L14,32.4595329 L15.9042486,28.4270063 L21.9042486,15.721124 Z M15,25.6581142 L15,16.7058824 L20,6.11764706 L21,4 L21,6.34188579 L21,15.2941176 L16,25.8823529 L15,27.7757613 L15,25.6581142 Z" id="Shape-4"></path>
                <path d="M15,32.4595329 L15,28 L15,16.7058824 L15,16.4816436 L14.9042486,16.278876 L8.90424865,3.57299369 L7,-0.459532851 L7,4 L7,15.2941176 L7,15.5183564 L7.09575135,15.721124 L13.0957514,28.4270063 L15,32.4595329 Z M14,28 L13,25.8823529 L8,15.2941176 L8,6.34188579 L8,4 L9,6.11764706 L14,16.7058824 L14,25.6581142 L14,28 Z" id="Shape-2"></path>
                <path d="M3.82352941,23.8831268 L4.7179566,22.0942724 L7.89442719,15.7413312 L8,15.5301856 L8,15.2941176 L8,4 L8,-0.236067977 L6.10557281,3.5527864 L0.105572809,15.5527864 L-0.118033989,16 L0.105572809,16.4472136 L2.92910222,22.0942724 L3.82352941,23.8831268 Z M3.82352941,21.6470588 L3.26451242,20.5290248 L1,16 L6,6 L7,4 L7,6.23606798 L7,15.2941176 L4.38254641,20.5290248 L3.82352941,21.6470588 Z" id="Shape"></path>
            </g>
            <path d="M400,266.148185 L398.78125,267.296296 C398.78125,267.296296 398.78125,267.192259 398.78125,267.487667 C398.78125,267.697519 398.745424,267.897963 398.693462,268.092593 C398.665091,269.672111 398.130982,271.766593 395.9375,273.419778 C391.622685,276.67163 387,273.802519 387,273.802519 C390.65625,273.802519 390.65625,272.654333 390.65625,272.654333 C389.84375,272.654333 388.21875,271.123481 388.21875,271.123481 C388.625,271.506185 389.4375,271.123481 389.4375,271.123481 C387.406212,269.975333 387.406212,268.827185 387.406212,268.827185 C387.8125,269.209889 388.625,268.827185 388.625,268.827185 C386.59375,267.296296 387.8125,265.382704 387.8125,265.382704 C388.21875,267.296296 393.5,268.061741 393.5,268.061741 L393.567218,268.030074 C393.525771,267.855 393.5,267.483148 393.5,267.296296 C393.5,265.922481 394.682197,265 396.140644,265 C396.943318,265 397.653615,265.34463 398.137865,265.877148 L398.375,265.765481 L399.59375,265 L398.78125,266.530889 L400,266.148185 L400,266.148185 Z" id="twitter" fill-opacity="0.499065897" fill="#5A6165"></path>
            <path d="M394.125,300 L394.125,296.04606 L393,296.04606 L393,294.608264 L394.125,294.608264 L394.125,293.389121 C394.125,292.431117 394.909537,291.5 396.398025,291.5 C397.000688,291.5 397.5,291.555355 397.5,291.555355 L397.125,292.888228 C397.125,292.888228 396.9174,292.884023 396.421463,292.884023 C395.884687,292.884023 395.625,293.121115 395.625,293.514676 L395.625,294.608264 L397.125,294.608264 L396.75,296.04606 L395.625,296.04606 L395.625,300 L394.125,300 L394.125,300 Z M399,291.466667 C399,290.656627 398.343373,290 397.533333,290 L389.466667,290 C388.656627,290 388,290.656627 388,291.466667 L388,299.533333 C388,300.343373 388.656627,301 389.466667,301 L397.533333,301 C398.343373,301 399,300.343373 399,299.533333 L399,291.466667 Z" id="facebook" fill-opacity="0.499065897" fill="#5A6165"></path>
        </g>
    </g>
</svg>